<?xml version="1.0" encoding="utf-8"?>
<!-- Generator: Adobe Illustrator 27.5.0, SVG Export Plug-In . SVG Version: 6.00 Build 0)  -->
<svg version="1.1" xmlns="http://www.w3.org/2000/svg" xmlns:xlink="http://www.w3.org/1999/xlink" x="0px" y="0px"
	 viewBox="0 0 2200 2200" style="enable-background:new 0 0 2200 2200;" xml:space="preserve">
<g id="background">
	<rect style="fill:#0000;" width="2200" height="2200"/>
</g>
<g id="Objects">
	<g>
		<g>
			<defs>
				<path id="SVGID_1_" d="M1736.59,949.314c0,0-1039.573,1027.822-1033.342,1007.658l165.208-456.629l197.788-248.817
					l269.957-355.471c-19.913,0-108.831,9.404-104.725-10.094l-293.172,1.712c3.063-14.512,274.917-583.662,289.748-583.662h264.663
					c23.082,0,38.251,24.087,28.28,44.908l-259.415,541.389l110.301,8.494l-39.382,36.728h300.757
					C1659.981,935.531,1753.904,928.947,1736.59,949.314z"/>
			</defs>
			<clipPath id="SVGID_00000150087734337157728370000004926939196061406374_">
				<use xlink:href="#SVGID_1_"  style="overflow:visible;"/>
			</clipPath>
			
		</g>
		<path  style="fill:#A3BFE0;" d="M990.552,874.255l281.084-586.612c9.973-20.814-5.198-44.906-28.277-44.906l-566.314-0.002
			c-14.825,0-27.624,10.382-30.682,24.888l-184.381,874.611c-4.109,19.492,10.762,37.824,30.682,37.824h206.446l-215.339,697.139
			c-6.23,20.171,8.849,40.61,29.96,40.61h36.554c9.2,0,17.935-4.04,23.893-11.05l833.611-980.838
			c17.309-20.366,2.835-51.662-23.893-51.663L990.552,874.255z M738.4,1151.073H489.742L675.121,271.72h518.174l-283.278,631.52
			h0.004l-0.001,0.003h412.926l-783.953,893.393L738.4,1151.073z"/>
	</g>
</g>
</svg>